<?xml version="1.0" encoding="UTF-8" standalone="no"?><!DOCTYPE svg PUBLIC "-//W3C//DTD SVG 1.1//EN" "http://www.w3.org/Graphics/SVG/1.1/DTD/svg11.dtd"><svg width="100%" height="100%" viewBox="0 0 104 42" version="1.1" xmlns="http://www.w3.org/2000/svg" xmlns:xlink="http://www.w3.org/1999/xlink" xml:space="preserve" xmlns:serif="http://www.serif.com/" style="fill-rule:evenodd;clip-rule:evenodd;stroke-linejoin:round;stroke-miterlimit:2;"><path d="M19.214,32.54c-0.886,-0 -1.329,-0.452 -1.329,-1.356c-0,-0.307 0.054,-0.56 0.163,-0.759l-0.028,-0.027l5.559,-23.239l0.922,-3.878l0.271,-1.112c0.344,-1.41 1.148,-2.115 2.414,-2.115c0.144,0 0.298,0.009 0.461,0.027l-0,-0.027l8.894,0l-0,0.027c0.163,-0.018 0.316,-0.027 0.461,-0.027c1.265,0 2.07,0.705 2.413,2.115l0.272,1.112l6.67,27.09c0.054,0.216 0.082,0.515 0.082,0.894c-0,0.904 -0.452,1.356 -1.356,1.356l-7.105,0c-0.163,0.018 -0.316,0.027 -0.461,0.027c-1.265,0 -2.07,-0.705 -2.413,-2.115l-5.722,-23.374l-0.027,-0l-5.477,23.32c-0.344,1.41 -1.148,2.115 -2.414,2.115l-2.25,-0.054Zm13.015,-2.603c-0.144,1.789 -1.048,2.693 -2.711,2.711c-1.808,0 -2.712,-0.886 -2.712,-2.657l-0.027,-5.505c0,-1.808 0.904,-2.711 2.712,-2.711c1.663,0.018 2.567,0.931 2.711,2.738l0.027,5.424Z" style="fill:#8e8e8e;fill-rule:nonzero;"/><path d="M63.359,5.342l-8.189,0.027l0,8.298l8.135,-0l0.054,-8.325Zm10.711,11.064c0,1.862 -0.904,2.793 -2.711,2.793l-10.766,-0.082l0.082,10.711c-0,1.88 -0.904,2.82 -2.712,2.82l-5.505,0c-1.807,0 -2.711,-0.895 -2.711,-2.684l-0,-27.225c-0,-1.808 0.904,-2.712 2.711,-2.712l19.009,-0.027c1.772,-0 2.658,0.922 2.658,2.766l-0.055,13.64Z" style="fill:#8e8e8e;fill-rule:nonzero;"/><path d="M93.16,5.342l-8.189,0.027l0,8.298l8.135,-0l0.054,-8.325Zm10.711,11.064c0,1.862 -0.904,2.793 -2.711,2.793l-10.766,-0.082l0.082,10.711c-0,1.88 -0.904,2.82 -2.712,2.82l-5.505,0c-1.807,0 -2.711,-0.895 -2.711,-2.684l-0,-27.225c-0,-1.808 0.904,-2.712 2.711,-2.712l19.009,-0.027c1.772,-0 2.658,0.922 2.658,2.766l-0.055,13.64Z" style="fill:#8e8e8e;fill-rule:nonzero;"/><path d="M27.388,8.519c0.891,-0 1.337,0.454 1.337,1.364c-0,0.309 -0.055,0.563 -0.164,0.763l0.027,0.028l-5.592,23.378l-0.927,3.901l-0.273,1.118c-0.346,1.419 -1.155,2.128 -2.428,2.128c-0.145,-0 -0.3,-0.009 -0.464,-0.027l0,0.027l-8.947,-0l-0,-0.027c-0.164,0.018 -0.318,0.027 -0.464,0.027c-1.273,-0 -2.082,-0.709 -2.428,-2.128l-0.273,-1.118l-6.71,-27.252c-0.055,-0.218 -0.082,-0.518 -0.082,-0.9c0,-0.91 0.455,-1.364 1.364,-1.364l7.147,-0c0.164,-0.018 0.318,-0.028 0.464,-0.028c1.273,0 2.082,0.71 2.428,2.128l5.756,23.515l0.027,-0l5.51,-23.46c0.346,-1.419 1.155,-2.128 2.428,-2.128l2.264,0.055Zm-13.094,2.618c0.146,-1.8 1.055,-2.709 2.728,-2.728c1.819,0 2.728,0.892 2.728,2.674l0.027,5.537c0,1.819 -0.909,2.728 -2.728,2.728c-1.673,-0.018 -2.582,-0.936 -2.727,-2.755l-0.028,-5.456Z" style="fill:#a83e46;fill-rule:nonzero;"/></svg>