<?xml version="1.0" encoding="UTF-8" standalone="no"?>
<!DOCTYPE svg PUBLIC "-//W3C//DTD SVG 1.1//EN" "http://www.w3.org/Graphics/SVG/1.1/DTD/svg11.dtd">
<svg width="100%" height="100%" viewBox="0 0 433 171" version="1.1" xmlns="http://www.w3.org/2000/svg" xmlns:xlink="http://www.w3.org/1999/xlink" xml:space="preserve" xmlns:serif="http://www.serif.com/" style="fill-rule:evenodd;clip-rule:evenodd;stroke-linejoin:round;stroke-miterlimit:2;">
    <g transform="matrix(1,0,0,1,-60.4715,-385.327)">
        <g transform="matrix(0.462789,0,0,0.462789,-66.7153,160.537)">
            <g transform="matrix(500,0,0,500,427.641,779.674)">
                <path d="M0.037,-0.002C0.021,-0.002 0.013,-0.01 0.013,-0.026C0.013,-0.032 0.014,-0.036 0.016,-0.04L0.015,-0.041L0.115,-0.459L0.132,-0.529L0.137,-0.549C0.143,-0.574 0.157,-0.587 0.18,-0.587C0.183,-0.587 0.186,-0.587 0.188,-0.586L0.188,-0.587L0.349,-0.587L0.349,-0.586C0.352,-0.587 0.354,-0.587 0.357,-0.587C0.38,-0.587 0.394,-0.574 0.4,-0.549L0.405,-0.529L0.525,-0.041C0.526,-0.037 0.527,-0.032 0.527,-0.025C0.527,-0.009 0.519,-0 0.502,-0L0.375,-0C0.372,-0 0.369,-0 0.366,-0C0.343,-0 0.329,-0.013 0.323,-0.038L0.22,-0.459L0.219,-0.459L0.121,-0.039C0.114,-0.014 0.1,-0.001 0.077,-0.001L0.037,-0.002ZM0.271,-0.049C0.268,-0.017 0.252,-0 0.222,-0C0.19,-0 0.173,-0.016 0.173,-0.048L0.173,-0.147C0.173,-0.18 0.189,-0.196 0.222,-0.196C0.252,-0.195 0.268,-0.179 0.271,-0.146L0.271,-0.049Z" style="fill:rgb(142,142,142);fill-rule:nonzero;"/>
            </g>
            <g transform="matrix(500,0,0,500,696.439,779.674)">
                <path d="M0.294,-0.492L0.146,-0.491L0.146,-0.342L0.293,-0.342L0.294,-0.492ZM0.487,-0.292C0.487,-0.259 0.471,-0.242 0.438,-0.242L0.244,-0.244L0.246,-0.051C0.246,-0.017 0.229,-0 0.197,-0L0.098,-0C0.065,-0 0.049,-0.016 0.049,-0.048L0.049,-0.539C0.049,-0.571 0.065,-0.587 0.098,-0.587L0.44,-0.588C0.472,-0.588 0.488,-0.571 0.488,-0.538L0.487,-0.292Z" style="fill:rgb(142,142,142);fill-rule:nonzero;"/>
            </g>
            <g transform="matrix(500,0,0,500,964.75,779.674)">
                <path d="M0.294,-0.492L0.146,-0.491L0.146,-0.342L0.293,-0.342L0.294,-0.492ZM0.487,-0.292C0.487,-0.259 0.471,-0.242 0.438,-0.242L0.244,-0.244L0.246,-0.051C0.246,-0.017 0.229,-0 0.197,-0L0.098,-0C0.065,-0 0.049,-0.016 0.049,-0.048L0.049,-0.539C0.049,-0.571 0.065,-0.587 0.098,-0.587L0.44,-0.588C0.472,-0.588 0.488,-0.571 0.488,-0.538L0.487,-0.292Z" style="fill:rgb(142,142,142);fill-rule:nonzero;"/>
            </g>
        </g>
        <g transform="matrix(-0.462789,-5.66753e-17,5.66753e-17,-0.462789,277.598,777.633)">
            <g transform="matrix(500,0,0,500,205.742,772.424)">
                <path d="M0.037,-0.002C0.021,-0.002 0.013,-0.01 0.013,-0.026C0.013,-0.032 0.014,-0.036 0.016,-0.04L0.015,-0.041L0.115,-0.459L0.132,-0.529L0.137,-0.549C0.143,-0.574 0.157,-0.587 0.18,-0.587C0.183,-0.587 0.186,-0.587 0.188,-0.586L0.188,-0.587L0.349,-0.587L0.349,-0.586C0.352,-0.587 0.354,-0.587 0.357,-0.587C0.38,-0.587 0.394,-0.574 0.4,-0.549L0.405,-0.529L0.525,-0.041C0.526,-0.037 0.527,-0.032 0.527,-0.025C0.527,-0.009 0.519,-0 0.502,-0L0.375,-0C0.372,-0 0.369,-0 0.366,-0C0.343,-0 0.329,-0.013 0.323,-0.038L0.22,-0.459L0.219,-0.459L0.121,-0.039C0.114,-0.014 0.1,-0.001 0.077,-0.001L0.037,-0.002ZM0.271,-0.049C0.268,-0.017 0.252,-0 0.222,-0C0.19,-0 0.173,-0.016 0.173,-0.048L0.173,-0.147C0.173,-0.18 0.189,-0.196 0.222,-0.196C0.252,-0.195 0.268,-0.179 0.271,-0.146L0.271,-0.049Z" style="fill:rgb(168,62,70);fill-rule:nonzero;"/>
            </g>
        </g>
    </g>
</svg>
